<?xml version="1.0" encoding="UTF-8"?>
<svg xmlns="http://www.w3.org/2000/svg" id="Layer_1" data-name="Layer 1" viewBox="0 0 24 24">
  <path d="m22.732,9.013c-.768-.699-1.765-1.054-2.797-1.008-1.036.048-1.991.498-2.69,1.265l-2.438,2.679c-.646-.589-1.507-.949-2.449-.949h-4.357v-1h.376c1.447,0,2.624-1.177,2.624-2.624,0-1.288-.923-2.377-2.193-2.588l-3.285-.548c-.302-.05-.521-.309-.521-.616,0-.344.28-.624.624-.624h2.376c.552,0,1,.449,1,1h2c0-1.654-1.346-3-3-3V0h-2v1h-.376c-1.447,0-2.624,1.177-2.624,2.624,0,1.288.923,2.377,2.193,2.588l3.285.548c.302.05.521.309.521.616,0,.344-.28.624-.624.624h-2.376c-.552,0-1-.449-1-1h-2c0,1.654,1.346,3,3,3v1h-2.5c-1.93,0-3.5,1.57-3.5,3.5v6c0,1.93,1.57,3.5,3.5,3.5h11.181l8.334-9.532c1.41-1.581,1.283-4.027-.282-5.455Zm-1.966,3.469l-7.447,8.518H3.5c-.275,0-.5-.224-.5-.5v-6c0-.276.225-.5.5-.5h8.857c.354,0,.643.288.643.642,0,.317-.237.591-.551.636l-5.161.737.424,2.97,5.162-.737c1.618-.231,2.875-1.531,3.093-3.115l3.497-3.843c.159-.175.376-.277.612-.288.231-.012.463.071.636.229.356.325.385.881.055,1.252Zm-4.787-6.966h-2.979v-3h2.979V0l3.65,3.183c.494.443.494,1.217,0,1.66l-3.65,3.157v-2.484Z"/>
</svg>
