<?xml version="1.0" encoding="UTF-8"?>
<svg xmlns="http://www.w3.org/2000/svg" id="Layer_1" data-name="Layer 1" viewBox="0 0 24 24">
  <path d="m7.56,17.354c.18.209.158.525-.051.706l-.542.468c-.571.494-1.277.736-1.979.736-.833,0-1.66-.341-2.248-1.008C.625,15.854-.315,12.768.091,9.564.7,4.773,4.289.999,9.022.173c3.01-.526,6.005.156,8.434,1.92,2.399,1.742,4.015,4.416,4.433,7.336.039.273-.151.527-.424.566-.276.035-.527-.151-.566-.424-.379-2.654-1.849-5.085-4.03-6.669-2.208-1.603-4.935-2.223-7.674-1.744C4.896,1.908,1.636,5.337,1.083,9.69c-.37,2.915.485,5.722,2.407,7.904.71.806,2.001.888,2.822.177l.542-.469c.209-.18.524-.157.706.051Zm3.44-4.354c-1.103,0-2-.897-2-2,0-.929.64-1.705,1.5-1.929V3.5c0-.276.224-.5.5-.5s.5.224.5.5v5.571c.86.224,1.5,1,1.5,1.929,0,1.103-.897,2-2,2Zm0-1c.551,0,1-.449,1-1s-.449-1-1-1-1,.449-1,1,.449,1,1,1Zm13,5.5c0,3.584-2.916,6.5-6.5,6.5s-6.5-2.916-6.5-6.5,2.916-6.5,6.5-6.5,6.5,2.916,6.5,6.5Zm-1,0c0-3.033-2.467-5.5-5.5-5.5s-5.5,2.467-5.5,5.5,2.467,5.5,5.5,5.5,5.5-2.467,5.5-5.5Zm-4.104-.484h-2.78c-.054,0-.083-.023-.104-.101l1.917-3.155c.144-.236.068-.544-.167-.687-.235-.145-.544-.068-.687.167,0,0-2.012,3.323-2.024,3.363-.102.335-.042.687.164.965.211.285.54.448.903.448h2.78c.045,0,.072.032.087.059.011.021.034.075-.007.137l-1.898,3.022c-.147.234-.077.542.157.689.083.052.175.077.266.077.167,0,.329-.083.424-.234l1.892-3.012c.228-.343.246-.784.049-1.152-.194-.362-.565-.586-.968-.586Z"/>
</svg>
