<?xml version="1.0" encoding="UTF-8"?>
<svg xmlns="http://www.w3.org/2000/svg" id="Layer_1" data-name="Layer 1" viewBox="0 0 24 24">
  <path d="m5,9.1v-2.6c0-.828.672-1.5,1.5-1.5h1.5c0,.618.147,1.198.401,1.717-.766.58-1.278,1.462-1.369,2.471-.67-.139-1.356-.177-2.032-.088Zm11-4.1c0,.618-.147,1.198-.401,1.717.761.576,1.271,1.45,1.367,2.45.393-.082.796-.131,1.204-.131.28,0,.556.026.83.065v-2.601c0-.828-.672-1.5-1.5-1.5h-1.5Zm-8-1c1.105,0,2-.895,2-2s-.895-2-2-2-2,.895-2,2,.895,2,2,2Zm4,3c1.105,0,2-.895,2-2s-.895-2-2-2-2,.895-2,2,.895,2,2,2Zm4-3c1.105,0,2-.895,2-2s-.895-2-2-2-2,.895-2,2,.895,2,2,2Zm-2.5,4h-3c-.828,0-1.5.672-1.5,1.5v.482c.367.232.719.491,1.035.807l1.966,1.966,2.047-2.047c.287-.287.608-.538.952-.756v-.452c0-.828-.672-1.5-1.5-1.5Zm8.292-3.989c-1.041.106-1.792,1.061-1.792,2.107v5.362c-1.446-.756-3.352-.542-4.538.643l-3.462,3.462-3.38-3.38c-1.242-1.243-3.157-1.525-4.62-.738v-5.349c0-1.046-.751-2.001-1.792-2.107-1.196-.122-2.208.818-2.208,1.989v15.621l2.379,2.379h4.242l-3.621-3.621v-3.017l3.325,3.321,2.113-2.129-3.319-3.294c-.102-.167-.14-.362-.11-.558.025-.158.105-.383.35-.557.315-.225.814-.146,1.139.18l3.769,3.769c.472.472.732,1.101.732,1.768v4.138h3v-4.138c0-.605-.097-1.195-.284-1.752l3.867-3.867c.314-.313.859-.314,1.174,0,.271.271.318.694.123,1.017l-3.318,3.293,2.113,2.129,3.325-3.3v2.996l-3.621,3.621h4.242l2.379-2.379V6c0-1.172-1.012-2.111-2.208-1.989Z"/>
</svg>
