<?xml version="1.0" encoding="UTF-8"?>
<svg xmlns="http://www.w3.org/2000/svg" id="Layer_1" data-name="Layer 1" viewBox="0 0 24 24">
  <path d="m3,21h17v3H0V2.993C0,1.339,1.346-.007,3-.007h11.382l5.618,5.665v3.342h-3v-1.007h-5V2.993H3v18.007Zm5.3-2v-6.4h2.001v-1.6h-5.5v1.6h1.899v6.4h1.6Zm3.507,0h-1.607l1.475-6.418c.126-.58.492-1.079,1.001-1.356.276-.15.578-.225.882-.225.262,0,.526.056.776.168.553.246.972.791,1.118,1.459l1.447,6.373h-1.609l-.325-1.4h-2.829l-.33,1.4Zm.707-2.999h2.081l-.701-3.019c-.047-.212-.151-.326-.207-.351-.046-.02-.087-.03-.127-.03-.041,0-.08.01-.118.031-.098.053-.174.162-.201.29l-.726,3.079Zm10.487-5h-1.812l-1.088,2.182-1.088-2.182h-1.812l1.994,4-1.994,4h1.812l1.088-2.182,1.088,2.182h1.812l-1.994-4,1.994-4Z"/>
</svg>
